<svg width="43" height="48" viewBox="0 0 45 52" fill="none" xmlns="http://www.w3.org/2000/svg">
<path fill-rule="evenodd" clip-rule="evenodd" d="M0.627496 13.1042C0.447981 13.2068 0.29132 13.3556 0.177876 13.5451L0.171643 13.555C0.169981 13.5575 0.168734 13.5604 0.167072 13.5629L0.159178 13.577L0.156682 13.5812C0.0494718 13.7744 -0.0012242 13.9843 2.24317e-05 14.1912V38.5172C2.24317e-05 38.9627 0.237714 39.3741 0.62334 39.5968L21.6902 51.7598C21.8689 51.8641 22.0759 51.9252 22.2965 51.929H22.3086C22.3115 51.9294 22.3148 51.9294 22.3177 51.9294L22.3339 51.929H22.3389C22.5596 51.9252 22.7665 51.8641 22.9452 51.7598L44.0121 39.5968C44.3977 39.3741 44.6354 38.9627 44.6354 38.5172V14.1912C44.6366 13.9843 44.5859 13.7744 44.4787 13.5812L44.4725 13.57L44.4683 13.5629L44.4604 13.5492L44.4575 13.5451C44.3441 13.3556 44.1874 13.2068 44.0079 13.1042L22.941 0.941562C22.5554 0.71883 22.08 0.71883 21.6944 0.941562L0.627496 13.1042ZM23.5643 42.0169V48.5232L41.3143 38.2754L35.6796 35.0221L23.5643 42.0169ZM3.32106 38.2754L21.0711 48.5232V42.0169L8.95585 35.0221L3.32106 38.2754ZM34.8451 20.5586L23.5643 27.0715V40.0975L34.8451 33.5843V20.5586ZM9.79027 33.5843L21.0711 40.0975V27.0715L9.79027 20.5586V33.5843ZM36.5073 19.5987V33.5884L42.1421 36.8418V16.3458L36.5073 19.5987ZM2.49329 36.8418L8.12809 33.5884V19.5987L2.49329 16.3458V36.8418ZM11.0369 18.3995L22.3177 24.9123L33.5985 18.3995L22.3177 11.8862L11.0369 18.3995ZM23.1455 10.4451L35.2607 17.4395L40.8955 14.1862L23.1455 3.93848V10.4451ZM3.73993 14.1862L9.37472 17.4395L21.4899 10.4451V3.93848L3.73993 14.1862Z" fill="#000"/>
</svg>
