<svg width="228" height="260" viewBox="0 0 229 260" fill="none" xmlns="http://www.w3.org/2000/svg">
<path fill-rule="evenodd" clip-rule="evenodd" d="M3.21934 62.6669C2.29835 63.1884 1.4946 63.9447 0.912585 64.9078L0.880607 64.9581L0.857155 64.9983L0.816656 65.07L0.80385 65.0913C0.253813 66.0733 -0.0062807 67.1401 0.000115084 68.1917V191.831C0.000115084 194.095 1.21958 196.186 3.19802 197.318L111.281 259.138C112.197 259.668 113.259 259.979 114.391 259.998H114.453L114.5 260L114.583 259.998H114.609C115.741 259.979 116.802 259.668 117.719 259.138L225.802 197.318C227.78 196.186 229 194.095 229 191.831V68.1917C229.006 67.1401 228.746 66.0733 228.196 65.0913L228.164 65.0344L228.143 64.9983L228.102 64.9287L228.087 64.9078C227.505 63.9447 226.701 63.1884 225.781 62.6669L117.698 0.849044C115.719 -0.283015 113.28 -0.283015 111.302 0.849044L3.21934 62.6669ZM120.896 209.619V242.688L211.961 190.602L183.053 174.067L120.896 209.619ZM17.0385 190.602L108.104 242.688V209.619L45.9476 174.067L17.0385 190.602ZM178.771 100.555L120.896 133.657V199.863L178.771 166.759V100.555ZM50.2285 166.759L108.104 199.863V133.657L50.2285 100.555V166.759ZM187.299 95.6759V166.78L216.208 183.316V79.1427L187.299 95.6759ZM12.7917 183.316L41.7008 166.78V95.6759L12.7917 79.1427V183.316ZM56.6243 89.5808L114.5 122.683L172.376 89.5808L114.5 56.4763L56.6243 89.5808ZM118.747 49.1518L180.903 84.7015L209.812 68.1663L118.747 16.0812V49.1518ZM19.1875 68.1663L48.0966 84.7015L110.253 49.1518V16.0812L19.1875 68.1663Z" fill="black"/>
</svg>
